<?xml version="1.0" encoding="UTF-8"?>
<svg id="Capa_1" data-name="Capa 1" xmlns="http://www.w3.org/2000/svg" viewBox="0 0 1283.39 1773.16">
  <defs>
    <style>
      .cls-1 {
        fill: #fffbdc;
      }

      .cls-2 {
        fill: #d71a1d;
      }
    </style>
  </defs>
  <path class="cls-1" d="m1273.08,1750.69h-10.76v-195.15c6.62-6.47,10.76-15.47,10.76-25.4V35.62c0-19.56-16-35.56-35.56-35.56H150.62S27.49-5.82,0,100.57v1538.05c0,141.65,86.07,134.48,86.07,134.48h1187.01c5.8-.96,10.23-3.02,10.31-9.41.16-12.1-10.31-13-10.31-13Z"/>
  <path class="cls-2" d="m1273.08,1750.69h-10.76v-21.81H43.07c-23.28-31.62-20.61-86.28-20.61-86.28,2.39-90.25,128.15-76.89,128.15-76.89h1086.9c9.63,0,18.39-3.89,24.8-10.16,6.62-6.47,10.76-15.47,10.76-25.4V35.62c0-19.56-16-35.56-35.56-35.56H150.62S27.49-5.82,0,100.57v1538.05c0,141.65,86.07,134.48,86.07,134.48h1187.01c5.8-.96,10.23-3.02,10.31-9.41.16-12.1-10.31-13-10.31-13Z"/>
  <path class="cls-2" d="m1273.08,1750.69H82.48c-17.96-1.07-30.55-9.78-39.41-21.81-23.28-31.62-20.61-86.28-20.61-86.28,2.39-90.25,128.15-76.89,128.15-76.89h1086.9c9.63,0,18.39-3.89,24.8-10.16,6.62-6.47,10.76-15.47,10.76-25.4v-16.74c0,19.56-16,35.56-35.56,35.56H150.62C0,1543.59,0,1638.62,0,1638.62c0,141.65,86.07,134.48,86.07,134.48h1187.01c5.8-.96,10.23-3.02,10.31-9.41.16-12.1-10.31-13-10.31-13Z"/>
  <path class="cls-1" d="m124.98,1643.28c88.32-27.44,184.3-35.53,276.26-39.57,99.61-4.38,199.35-1.14,298.96,1.63,98.87,2.75,197.19,2.2,296.05-.45,49.41-1.32,99.65-3.01,148.82,2.84,38.87,4.63,78.01,12.99,117.26,13.47v-65.65c-6.42,6.27-15.17,10.16-24.8,10.16H150.62s-125.76-13.36-128.15,76.89c0,0-1.04,21.26,3.83,44.94,30.78-18.28,63.56-33.35,98.68-44.26Z"/>
</svg>